#!OML:ASF F:\VICON\USERDATA\INSTALL\rory3\rory3.ASF
:FULLY-SPECIFIED
:DEGREES
46
root 1.0571 17.8654 -17.095 6.94696 -4.10921 0.500917
lowerback 6.06524 -0.215657 -2.16057
upperback -0.679714 -0.370175 1.937
thorax -4.08184 -0.112928 3.25815
lowerneck -16.7177 -4.13961 -9.96197
upperneck 16.3362 -4.5272 6.93744
head 8.21176 -2.08781 3.4176
rclavicle 5.66536e-015 -3.97569e-015
rhumerus -31.1039 -4.95218 -83.2218
rradius 34.127
rwrist 4.78977
rhand -13.687 13.4155
rfingers 7.12502
rthumb 12.4309 -16.1948
lclavicle 5.66536e-015 -3.97569e-015
lhumerus -29.8268 6.97223 86.0696
lradius 29.7341
lwrist -4.84959
lhand -16.6677 26.8423
lfingers 7.12502
lthumb 9.55594 56.6056
rfemur -10.7574 6.75682 18.2556
rtibia 20.1424
rfoot -10.5763 -9.76544
rtoes 3.57692
lfemur -9.07643 -2.53801 -19.9629
ltibia 17.296
lfoot -11.1066 9.00582
ltoes -0.159001
47
root 1.06105 17.8637 -17.0912 6.90121 -4.06464 0.540476
lowerback 6.17959 -0.244827 -2.20066
upperback -0.737631 -0.412812 1.9542
thorax -4.20322 -0.130227 3.30485
lowerneck -16.5825 -4.05965 -9.98159
upperneck 16.331 -4.42713 6.94472
head 8.17756 -2.04356 3.43711
rclavicle 6.75868e-015 -6.36111e-015
rhumerus -31.1427 -4.85511 -83.2123
rradius 34.0777
rwrist 4.99636
rhand -14.0758 13.2266
rfingers 7.12502
rthumb 12.056 -16.4062
lclavicle 6.75868e-015 -6.36111e-015
lhumerus -29.9616 6.98566 86.0938
lradius 29.7701
lwrist -4.54474
lhand -16.6049 27.4616
lfingers 7.12502
lthumb 9.6166 57.2221
rfemur -10.6872 6.66647 18.2081
rtibia 20.1287
rfoot -10.551 -9.73517
rtoes 3.07583
lfemur -8.99342 -2.54575 -20.0149
ltibia 17.3153
lfoot -11.1831 8.93318
ltoes 0.310098
48
root 1.06279 17.8615 -17.089 6.8736 -3.94125 0.607173
lowerback 6.30834 -0.289316 -2.24256
upperback -0.783019 -0.477722 1.93991
thorax -4.31823 -0.159088 3.32218
lowerneck -16.5039 -4.00926 -9.99918
upperneck 16.308 -4.36782 6.98203
head 8.15176 -2.01428 3.46063
rclavicle 1.14301e-014 -2.78299e-015
rhumerus -31.1852 -4.74312 -83.2742
rradius 34.0271
rwrist 4.82619
rhand -14.3141 13.2144
rfingers 7.12502
rthumb 11.8262 -16.4316
lclavicle 1.14301e-014 -2.78299e-015
lhumerus -29.9783 7.04666 86.0358
lradius 29.8284
lwrist -4.97418
lhand -15.8946 28.4683
lfingers 7.12502
lthumb 10.3019 58.196
rfemur -10.6137 6.57284 18.1395
rtibia 20.0959
rfoot -10.5375 -9.72298
rtoes 3.19191
lfemur -8.99352 -2.37712 -20.0816
ltibia 17.3708
lfoot -11.232 8.62482
ltoes 0.642863
49
root 1.06462 17.8626 -17.0843 6.83181 -3.88445 0.651129
lowerback 6.44809 -0.33069 -2.32111
upperback -0.80978 -0.539343 1.98275
thorax -4.4196 -0.185087 3.41983
lowerneck -16.4804 -3.96256 -10.0796
upperneck 16.31 -4.28399 6.97375
head 8.14232 -1.98095 3.48176
rclavicle -4.07509e-015 -7.95139e-015
rhumerus -31.2071 -4.53868 -83.2884
rradius 33.9595
rwrist 4.5643
rhand -14.4711 13.3222
rfingers 7.12502
rthumb 11.6748 -16.3325
lclavicle -4.07509e-015 -7.95139e-015
lhumerus -30.1135 7.23822 86.0118
lradius 30.056
lwrist -5.44759
lhand -15.0498 29.0721
lfingers 7.12502
lthumb 11.1167 58.7576
rfemur -10.5537 6.39884 18.0973
rtibia 20.16
rfoot -10.6054 -9.59317
rtoes 3.29671
lfemur -8.90084 -2.17893 -20.1413
ltibia 17.3151
lfoot -11.2383 8.37096
ltoes 0.770421
50
root 1.06853 17.8614 -17.0756 6.77123 -3.86503 0.766545
lowerback 6.4529 -0.342263 -2.38612
upperback -0.752151 -0.561877 1.94397
thorax -4.36035 -0.196977 3.41773
lowerneck -16.5143 -3.9822 -10.0719
upperneck 16.2352 -4.30721 6.97855
head 8.12538 -1.98971 3.47809
rclavicle 1.45113e-014 -9.14409e-015
rhumerus -31.0948 -4.48241 -83.3383
rradius 33.9182
rwrist 4.45602
rhand -14.5003 13.1257
rfingers 7.12502
rthumb 11.6467 -16.5306
lclavicle 1.45113e-014 -9.14409e-015
lhumerus -30.1433 6.99083 86.1199
lradius 30.1896
lwrist -4.81795
lhand -15.3243 28.9452
lfingers 7.12502
lthumb 10.8519 58.6448
rfemur -10.4846 6.27922 17.9574
rtibia 20.2447
rfoot -10.7463 -9.56263
rtoes 3.28857
lfemur -8.75428 -2.10842 -20.3011
ltibia 17.2141
lfoot -11.2022 8.27606
ltoes 0.52296
51
root 1.07291 17.8602 -17.0668 6.84679 -3.8779 0.788869
lowerback 6.32484 -0.324433 -2.34183
upperback -0.769454 -0.533835 1.91136
thorax -4.30876 -0.185229 3.35414
lowerneck -16.5433 -3.98358 -10.1049
upperneck 16.2971 -4.31404 7.04621
head 8.15403 -1.98836 3.50631
rclavicle 2.98177e-016 2.38542e-015
rhumerus -31.1652 -4.55121 -83.3161
rradius 34.0332
rwrist 4.49845
rhand -14.3702 13.0205
rfingers 7.12502
rthumb 11.7721 -16.6287
lclavicle 2.98177e-016 2.38542e-015
lhumerus -30.128 6.79202 86.173
lradius 30.152
lwrist -4.57351
lhand -16.202 27.8412
lfingers 7.12502
lthumb 10.0053 57.5834
rfemur -10.585 6.22688 17.9015
rtibia 20.3336
rfoot -10.8791 -9.56747
rtoes 3.30829
lfemur -8.80856 -2.20343 -20.3364
ltibia 17.0772
lfoot -11.0585 8.3599
ltoes 0.623351
52
root 1.07627 17.8575 -17.0579 6.9056 -3.95569 0.792537
lowerback 6.17488 -0.259539 -2.2818
upperback -0.726755 -0.442532 1.85819
thorax -4.18717 -0.144621 3.2533
lowerneck -16.7212 -3.99367 -10.0963
upperneck 16.4421 -4.33719 7.14021
head 8.23791 -1.98726 3.53462
rclavicle -7.95139e-016 -7.55382e-015
rhumerus -31.2015 -4.63343 -83.3472
rradius 34.1873
rwrist 4.39387
rhand -13.8617 12.893
rfingers 7.12502
rthumb 12.2624 -16.7275
lclavicle -7.95139e-016 -7.55382e-015
lhumerus -29.9885 6.72999 86.1383
lradius 30.1371
lwrist -4.73474
lhand -17.5153 24.9125
lfingers 7.12502
lthumb 8.73807 54.7116
rfemur -10.6626 6.30294 17.8693
rtibia 20.391
rfoot -10.9304 -9.59723
rtoes 3.1459
lfemur -8.89971 -2.24465 -20.349
ltibia 16.9589
lfoot -10.9162 8.52256
ltoes 0.339781
53
root 1.07879 17.8524 -17.0499 6.82765 -4.04747 0.800936
lowerback 6.18221 -0.193412 -2.25363
upperback -0.614454 -0.354188 1.8186
thorax -4.08129 -0.105044 3.18663
lowerneck -16.9728 -4.02803 -9.98005
upperneck 16.4688 -4.38053 7.09414
head 8.29149 -2.00025 3.49261
rclavicle -1.49089e-014 -2.94201e-014
rhumerus -31.1187 -4.79053 -83.3856
rradius 34.2613
rwrist 4.40413
rhand -13.4787 12.6287
rfingers 7.12502
rthumb 12.6317 -16.9693
lclavicle -1.49089e-014 -2.94201e-014
lhumerus -29.8187 6.59404 86.1675
lradius 30.2044
lwrist -4.62456
lhand -17.6195 25.0337
lfingers 7.12502
lthumb 8.63756 54.837
rfemur -10.5867 6.42801 17.8503
rtibia 20.4161
rfoot -10.9512 -9.62866
rtoes 3.19339
lfemur -8.78129 -2.27272 -20.3828
ltibia 16.8699
lfoot -10.801 8.66361
ltoes -0.355421
54
root 1.08053 17.8492 -17.045 6.77119 -4.00551 0.770416
lowerback 6.25663 -0.188394 -2.20186
upperback -0.610346 -0.34418 1.83183
thorax -4.11989 -0.100504 3.171
lowerneck -17.022 -4.03147 -10.0017
upperneck 16.5161 -4.37793 7.10001
head 8.31652 -1.99921 3.49873
rclavicle -6.65929e-015 -1.31198e-014
rhumerus -31.094 -4.89011 -83.363
rradius 34.1296
rwrist 4.4728
rhand -14.1766 12.9117
rfingers 7.12502
rthumb 11.9588 -16.7267
lclavicle -6.65929e-015 -1.31198e-014
lhumerus -29.8433 6.53629 86.1878
lradius 30.2684
lwrist -4.76878
lhand -21.7097 18.0854
lfingers 7.12502
lthumb 4.68908 48.0135
rfemur -10.5252 6.46002 17.8832
rtibia 20.4504
rfoot -10.9351 -9.61753
rtoes 3.76646
lfemur -8.66341 -2.38175 -20.3526
ltibia 16.7932
lfoot -10.6955 8.71197
ltoes -0.829098
55
root 1.08276 17.8513 -17.0409 6.80817 -3.86835 0.763347
lowerback 6.30115 -0.225268 -2.16498
upperback -0.670445 -0.390297 1.84899
thorax -4.20432 -0.121925 3.17362
lowerneck -17.0612 -4.03663 -10.0706
upperneck 16.6434 -4.37917 7.15049
head 8.36921 -1.99939 3.52857
rclavicle -5.36719e-015 2.50469e-014
rhumerus -31.1426 -4.99466 -83.3241
rradius 33.9275
rwrist 4.27933
rhand -14.9111 13.9456
rfingers 7.12502
rthumb 11.2505 -15.7327
lclavicle -5.36719e-015 2.50469e-014
lhumerus -29.9167 6.51214 86.2069
lradius 30.2486
lwrist -4.86804
lhand -15.0993 28.9901
lfingers 7.12502
lthumb 11.069 58.6782
rfemur -10.5083 6.3515 17.8994
rtibia 20.4538
rfoot -10.9286 -9.61002
rtoes 4.32553
lfemur -8.6947 -2.38019 -20.342
ltibia 16.8066
lfoot -10.7544 8.56394
ltoes -0.530494
56
root 1.0824 17.8527 -17.036 6.83994 -3.88464 0.845005
lowerback 6.27629 -0.209966 -2.32489
upperback -0.689314 -0.380759 1.87382
thorax -4.20972 -0.112838 3.28891
lowerneck -17.0498 -4.05013 -10.0966
upperneck 16.6446 -4.38521 7.11669
head 8.36809 -2.00751 3.52051
rclavicle -2.24627e-014 4.77083e-015
rhumerus -31.1562 -5.01017 -83.2581
rradius 33.9207
rwrist 4.31365
rhand -14.8532 14.3014
rfingers 7.12502
rthumb 11.3064 -15.3738
lclavicle -2.24627e-014 4.77083e-015
lhumerus -29.9463 6.52468 86.2788
lradius 30.275
lwrist -4.87872
lhand -21.8633 17.6393
lfingers 7.12502
lthumb 4.5408 47.5706
rfemur -10.5324 6.31848 17.809
rtibia 20.4566
rfoot -10.8735 -9.58197
rtoes 3.93208
lfemur -8.7322 -2.20938 -20.4343
ltibia 16.8493
lfoot -10.8488 8.40937
ltoes -0.0262519
